<svg width="48" height="48" viewBox="0 0 48 48" fill="none" xmlns="http://www.w3.org/2000/svg">
<path d="M23.9995 19.2272C21.3684 19.2272 19.2261 21.3684 19.2261 23.9995C19.2261 26.6316 21.3684 28.7739 23.9995 28.7739C26.6316 28.7739 28.7728 26.6316 28.7728 23.9995C28.7728 21.3684 26.6316 19.2272 23.9995 19.2272ZM23.9995 19.2272C21.3684 19.2272 19.2261 21.3684 19.2261 23.9995C19.2261 26.6316 21.3684 28.7739 23.9995 28.7739C26.6316 28.7739 28.7728 26.6316 28.7728 23.9995C28.7728 21.3684 26.6316 19.2272 23.9995 19.2272ZM31.9515 11.4447H16.0484C13.5101 11.4447 11.4447 13.5101 11.4447 16.0484V31.9515C11.4447 34.4899 13.5101 36.5553 16.0484 36.5553H31.9515C34.4899 36.5553 36.5553 34.4899 36.5553 31.9515V16.0484C36.5553 13.5101 34.4899 11.4447 31.9515 11.4447ZM23.9995 32.2665C19.442 32.2665 15.7335 28.558 15.7335 23.9995C15.7335 19.442 19.442 15.7335 23.9995 15.7335C28.558 15.7335 32.2665 19.442 32.2665 23.9995C32.2665 28.558 28.558 32.2665 23.9995 32.2665ZM32.5319 17.443C31.4534 17.443 30.576 16.5656 30.576 15.4871C30.576 14.4085 31.4534 13.5312 32.5319 13.5312C33.6104 13.5312 34.4878 14.4085 34.4878 15.4871C34.4878 16.5656 33.6104 17.443 32.5319 17.443ZM23.9995 19.2272C21.3684 19.2272 19.2261 21.3684 19.2261 23.9995C19.2261 26.6316 21.3684 28.7739 23.9995 28.7739C26.6316 28.7739 28.7728 26.6316 28.7728 23.9995C28.7728 21.3684 26.6316 19.2272 23.9995 19.2272ZM31.9515 11.4447H16.0484C13.5101 11.4447 11.4447 13.5101 11.4447 16.0484V31.9515C11.4447 34.4899 13.5101 36.5553 16.0484 36.5553H31.9515C34.4899 36.5553 36.5553 34.4899 36.5553 31.9515V16.0484C36.5553 13.5101 34.4899 11.4447 31.9515 11.4447ZM23.9995 32.2665C19.442 32.2665 15.7335 28.558 15.7335 23.9995C15.7335 19.442 19.442 15.7335 23.9995 15.7335C28.558 15.7335 32.2665 19.442 32.2665 23.9995C32.2665 28.558 28.558 32.2665 23.9995 32.2665ZM32.5319 17.443C31.4534 17.443 30.576 16.5656 30.576 15.4871C30.576 14.4085 31.4534 13.5312 32.5319 13.5312C33.6104 13.5312 34.4878 14.4085 34.4878 15.4871C34.4878 16.5656 33.6104 17.443 32.5319 17.443ZM23.9995 19.2272C21.3684 19.2272 19.2261 21.3684 19.2261 23.9995C19.2261 26.6316 21.3684 28.7739 23.9995 28.7739C26.6316 28.7739 28.7728 26.6316 28.7728 23.9995C28.7728 21.3684 26.6316 19.2272 23.9995 19.2272ZM0 0V48H48V0H0ZM40.0479 31.9515C40.0479 36.4163 36.4163 40.0479 31.9515 40.0479H16.0484C11.5837 40.0479 7.95208 36.4163 7.95208 31.9515V16.0484C7.95208 11.5837 11.5837 7.95208 16.0484 7.95208H31.9515C36.4163 7.95208 40.0479 11.5837 40.0479 16.0484V31.9515ZM31.9515 11.4447H16.0484C13.5101 11.4447 11.4447 13.5101 11.4447 16.0484V31.9515C11.4447 34.4899 13.5101 36.5553 16.0484 36.5553H31.9515C34.4899 36.5553 36.5553 34.4899 36.5553 31.9515V16.0484C36.5553 13.5101 34.4899 11.4447 31.9515 11.4447ZM23.9995 32.2665C19.442 32.2665 15.7335 28.558 15.7335 23.9995C15.7335 19.442 19.442 15.7335 23.9995 15.7335C28.558 15.7335 32.2665 19.442 32.2665 23.9995C32.2665 28.558 28.558 32.2665 23.9995 32.2665ZM32.5319 17.443C31.4534 17.443 30.576 16.5656 30.576 15.4871C30.576 14.4085 31.4534 13.5312 32.5319 13.5312C33.6104 13.5312 34.4878 14.4085 34.4878 15.4871C34.4878 16.5656 33.6104 17.443 32.5319 17.443ZM23.9995 19.2272C21.3684 19.2272 19.2261 21.3684 19.2261 23.9995C19.2261 26.6316 21.3684 28.7739 23.9995 28.7739C26.6316 28.7739 28.7728 26.6316 28.7728 23.9995C28.7728 21.3684 26.6316 19.2272 23.9995 19.2272ZM23.9995 19.2272C21.3684 19.2272 19.2261 21.3684 19.2261 23.9995C19.2261 26.6316 21.3684 28.7739 23.9995 28.7739C26.6316 28.7739 28.7728 26.6316 28.7728 23.9995C28.7728 21.3684 26.6316 19.2272 23.9995 19.2272ZM23.9995 19.2272C21.3684 19.2272 19.2261 21.3684 19.2261 23.9995C19.2261 26.6316 21.3684 28.7739 23.9995 28.7739C26.6316 28.7739 28.7728 26.6316 28.7728 23.9995C28.7728 21.3684 26.6316 19.2272 23.9995 19.2272ZM31.9515 11.4447H16.0484C13.5101 11.4447 11.4447 13.5101 11.4447 16.0484V31.9515C11.4447 34.4899 13.5101 36.5553 16.0484 36.5553H31.9515C34.4899 36.5553 36.5553 34.4899 36.5553 31.9515V16.0484C36.5553 13.5101 34.4899 11.4447 31.9515 11.4447ZM23.9995 32.2665C19.442 32.2665 15.7335 28.558 15.7335 23.9995C15.7335 19.442 19.442 15.7335 23.9995 15.7335C28.558 15.7335 32.2665 19.442 32.2665 23.9995C32.2665 28.558 28.558 32.2665 23.9995 32.2665ZM32.5319 17.443C31.4534 17.443 30.576 16.5656 30.576 15.4871C30.576 14.4085 31.4534 13.5312 32.5319 13.5312C33.6104 13.5312 34.4878 14.4085 34.4878 15.4871C34.4878 16.5656 33.6104 17.443 32.5319 17.443ZM23.9995 19.2272C21.3684 19.2272 19.2261 21.3684 19.2261 23.9995C19.2261 26.6316 21.3684 28.7739 23.9995 28.7739C26.6316 28.7739 28.7728 26.6316 28.7728 23.9995C28.7728 21.3684 26.6316 19.2272 23.9995 19.2272ZM23.9995 19.2272C21.3684 19.2272 19.2261 21.3684 19.2261 23.9995C19.2261 26.6316 21.3684 28.7739 23.9995 28.7739C26.6316 28.7739 28.7728 26.6316 28.7728 23.9995C28.7728 21.3684 26.6316 19.2272 23.9995 19.2272ZM23.9995 19.2272C21.3684 19.2272 19.2261 21.3684 19.2261 23.9995C19.2261 26.6316 21.3684 28.7739 23.9995 28.7739C26.6316 28.7739 28.7728 26.6316 28.7728 23.9995C28.7728 21.3684 26.6316 19.2272 23.9995 19.2272ZM31.9515 11.4447H16.0484C13.5101 11.4447 11.4447 13.5101 11.4447 16.0484V31.9515C11.4447 34.4899 13.5101 36.5553 16.0484 36.5553H31.9515C34.4899 36.5553 36.5553 34.4899 36.5553 31.9515V16.0484C36.5553 13.5101 34.4899 11.4447 31.9515 11.4447ZM23.9995 32.2665C19.442 32.2665 15.7335 28.558 15.7335 23.9995C15.7335 19.442 19.442 15.7335 23.9995 15.7335C28.558 15.7335 32.2665 19.442 32.2665 23.9995C32.2665 28.558 28.558 32.2665 23.9995 32.2665ZM32.5319 17.443C31.4534 17.443 30.576 16.5656 30.576 15.4871C30.576 14.4085 31.4534 13.5312 32.5319 13.5312C33.6104 13.5312 34.4878 14.4085 34.4878 15.4871C34.4878 16.5656 33.6104 17.443 32.5319 17.443ZM23.9995 19.2272C21.3684 19.2272 19.2261 21.3684 19.2261 23.9995C19.2261 26.6316 21.3684 28.7739 23.9995 28.7739C26.6316 28.7739 28.7728 26.6316 28.7728 23.9995C28.7728 21.3684 26.6316 19.2272 23.9995 19.2272Z" fill="#282828"/>
</svg>
