<svg width="48" height="49" viewBox="0 0 48 49" fill="none" xmlns="http://www.w3.org/2000/svg">
<path d="M23.9995 19.5231C21.3684 19.5231 19.2261 21.6643 19.2261 24.2954C19.2261 26.9275 21.3684 29.0698 23.9995 29.0698C26.6316 29.0698 28.7728 26.9275 28.7728 24.2954C28.7728 21.6643 26.6316 19.5231 23.9995 19.5231ZM23.9995 19.5231C21.3684 19.5231 19.2261 21.6643 19.2261 24.2954C19.2261 26.9275 21.3684 29.0698 23.9995 29.0698C26.6316 29.0698 28.7728 26.9275 28.7728 24.2954C28.7728 21.6643 26.6316 19.5231 23.9995 19.5231ZM31.9515 11.7406H16.0484C13.5101 11.7406 11.4447 13.806 11.4447 16.3443V32.2474C11.4447 34.7858 13.5101 36.8512 16.0484 36.8512H31.9515C34.4899 36.8512 36.5553 34.7858 36.5553 32.2474V16.3443C36.5553 13.806 34.4899 11.7406 31.9515 11.7406ZM23.9995 32.5624C19.442 32.5624 15.7335 28.8539 15.7335 24.2954C15.7335 19.7379 19.442 16.0294 23.9995 16.0294C28.558 16.0294 32.2665 19.7379 32.2665 24.2954C32.2665 28.8539 28.558 32.5624 23.9995 32.5624ZM32.5319 17.7389C31.4534 17.7389 30.576 16.8615 30.576 15.783C30.576 14.7044 31.4534 13.8271 32.5319 13.8271C33.6104 13.8271 34.4878 14.7044 34.4878 15.783C34.4878 16.8615 33.6104 17.7389 32.5319 17.7389ZM23.9995 19.5231C21.3684 19.5231 19.2261 21.6643 19.2261 24.2954C19.2261 26.9275 21.3684 29.0698 23.9995 29.0698C26.6316 29.0698 28.7728 26.9275 28.7728 24.2954C28.7728 21.6643 26.6316 19.5231 23.9995 19.5231ZM31.9515 11.7406H16.0484C13.5101 11.7406 11.4447 13.806 11.4447 16.3443V32.2474C11.4447 34.7858 13.5101 36.8512 16.0484 36.8512H31.9515C34.4899 36.8512 36.5553 34.7858 36.5553 32.2474V16.3443C36.5553 13.806 34.4899 11.7406 31.9515 11.7406ZM23.9995 32.5624C19.442 32.5624 15.7335 28.8539 15.7335 24.2954C15.7335 19.7379 19.442 16.0294 23.9995 16.0294C28.558 16.0294 32.2665 19.7379 32.2665 24.2954C32.2665 28.8539 28.558 32.5624 23.9995 32.5624ZM32.5319 17.7389C31.4534 17.7389 30.576 16.8615 30.576 15.783C30.576 14.7044 31.4534 13.8271 32.5319 13.8271C33.6104 13.8271 34.4878 14.7044 34.4878 15.783C34.4878 16.8615 33.6104 17.7389 32.5319 17.7389ZM23.9995 19.5231C21.3684 19.5231 19.2261 21.6643 19.2261 24.2954C19.2261 26.9275 21.3684 29.0698 23.9995 29.0698C26.6316 29.0698 28.7728 26.9275 28.7728 24.2954C28.7728 21.6643 26.6316 19.5231 23.9995 19.5231ZM0 0.295898V48.2959H48V0.295898H0ZM40.0479 32.2474C40.0479 36.7122 36.4163 40.3438 31.9515 40.3438H16.0484C11.5837 40.3438 7.95208 36.7122 7.95208 32.2474V16.3443C7.95208 11.8796 11.5837 8.24798 16.0484 8.24798H31.9515C36.4163 8.24798 40.0479 11.8796 40.0479 16.3443V32.2474ZM31.9515 11.7406H16.0484C13.5101 11.7406 11.4447 13.806 11.4447 16.3443V32.2474C11.4447 34.7858 13.5101 36.8512 16.0484 36.8512H31.9515C34.4899 36.8512 36.5553 34.7858 36.5553 32.2474V16.3443C36.5553 13.806 34.4899 11.7406 31.9515 11.7406ZM23.9995 32.5624C19.442 32.5624 15.7335 28.8539 15.7335 24.2954C15.7335 19.7379 19.442 16.0294 23.9995 16.0294C28.558 16.0294 32.2665 19.7379 32.2665 24.2954C32.2665 28.8539 28.558 32.5624 23.9995 32.5624ZM32.5319 17.7389C31.4534 17.7389 30.576 16.8615 30.576 15.783C30.576 14.7044 31.4534 13.8271 32.5319 13.8271C33.6104 13.8271 34.4878 14.7044 34.4878 15.783C34.4878 16.8615 33.6104 17.7389 32.5319 17.7389ZM23.9995 19.5231C21.3684 19.5231 19.2261 21.6643 19.2261 24.2954C19.2261 26.9275 21.3684 29.0698 23.9995 29.0698C26.6316 29.0698 28.7728 26.9275 28.7728 24.2954C28.7728 21.6643 26.6316 19.5231 23.9995 19.5231ZM23.9995 19.5231C21.3684 19.5231 19.2261 21.6643 19.2261 24.2954C19.2261 26.9275 21.3684 29.0698 23.9995 29.0698C26.6316 29.0698 28.7728 26.9275 28.7728 24.2954C28.7728 21.6643 26.6316 19.5231 23.9995 19.5231ZM23.9995 19.5231C21.3684 19.5231 19.2261 21.6643 19.2261 24.2954C19.2261 26.9275 21.3684 29.0698 23.9995 29.0698C26.6316 29.0698 28.7728 26.9275 28.7728 24.2954C28.7728 21.6643 26.6316 19.5231 23.9995 19.5231ZM31.9515 11.7406H16.0484C13.5101 11.7406 11.4447 13.806 11.4447 16.3443V32.2474C11.4447 34.7858 13.5101 36.8512 16.0484 36.8512H31.9515C34.4899 36.8512 36.5553 34.7858 36.5553 32.2474V16.3443C36.5553 13.806 34.4899 11.7406 31.9515 11.7406ZM23.9995 32.5624C19.442 32.5624 15.7335 28.8539 15.7335 24.2954C15.7335 19.7379 19.442 16.0294 23.9995 16.0294C28.558 16.0294 32.2665 19.7379 32.2665 24.2954C32.2665 28.8539 28.558 32.5624 23.9995 32.5624ZM32.5319 17.7389C31.4534 17.7389 30.576 16.8615 30.576 15.783C30.576 14.7044 31.4534 13.8271 32.5319 13.8271C33.6104 13.8271 34.4878 14.7044 34.4878 15.783C34.4878 16.8615 33.6104 17.7389 32.5319 17.7389ZM23.9995 19.5231C21.3684 19.5231 19.2261 21.6643 19.2261 24.2954C19.2261 26.9275 21.3684 29.0698 23.9995 29.0698C26.6316 29.0698 28.7728 26.9275 28.7728 24.2954C28.7728 21.6643 26.6316 19.5231 23.9995 19.5231ZM23.9995 19.5231C21.3684 19.5231 19.2261 21.6643 19.2261 24.2954C19.2261 26.9275 21.3684 29.0698 23.9995 29.0698C26.6316 29.0698 28.7728 26.9275 28.7728 24.2954C28.7728 21.6643 26.6316 19.5231 23.9995 19.5231ZM23.9995 19.5231C21.3684 19.5231 19.2261 21.6643 19.2261 24.2954C19.2261 26.9275 21.3684 29.0698 23.9995 29.0698C26.6316 29.0698 28.7728 26.9275 28.7728 24.2954C28.7728 21.6643 26.6316 19.5231 23.9995 19.5231ZM31.9515 11.7406H16.0484C13.5101 11.7406 11.4447 13.806 11.4447 16.3443V32.2474C11.4447 34.7858 13.5101 36.8512 16.0484 36.8512H31.9515C34.4899 36.8512 36.5553 34.7858 36.5553 32.2474V16.3443C36.5553 13.806 34.4899 11.7406 31.9515 11.7406ZM23.9995 32.5624C19.442 32.5624 15.7335 28.8539 15.7335 24.2954C15.7335 19.7379 19.442 16.0294 23.9995 16.0294C28.558 16.0294 32.2665 19.7379 32.2665 24.2954C32.2665 28.8539 28.558 32.5624 23.9995 32.5624ZM32.5319 17.7389C31.4534 17.7389 30.576 16.8615 30.576 15.783C30.576 14.7044 31.4534 13.8271 32.5319 13.8271C33.6104 13.8271 34.4878 14.7044 34.4878 15.783C34.4878 16.8615 33.6104 17.7389 32.5319 17.7389ZM23.9995 19.5231C21.3684 19.5231 19.2261 21.6643 19.2261 24.2954C19.2261 26.9275 21.3684 29.0698 23.9995 29.0698C26.6316 29.0698 28.7728 26.9275 28.7728 24.2954C28.7728 21.6643 26.6316 19.5231 23.9995 19.5231Z" fill="white"/>
</svg>
