<svg width="48" height="49" viewBox="0 0 48 49" fill="none" xmlns="http://www.w3.org/2000/svg">
<path fill-rule="evenodd" clip-rule="evenodd" d="M0 0.295898V48.2959H48V0.295898H0ZM35.984 26.8517C37.0859 27.9267 38.251 28.9388 39.2401 30.1272C39.677 30.6524 40.0903 31.1941 40.4053 31.8026C40.8525 32.6744 40.4472 33.6295 39.6685 33.6822L34.8289 33.6801C33.5797 33.7827 32.5843 33.2791 31.7448 32.4245C31.0772 31.744 30.4532 31.0157 29.8087 30.3121C29.5465 30.0225 29.2691 29.7515 28.9396 29.5355C28.2784 29.1071 27.705 29.2372 27.3271 29.9257C26.9428 30.6272 26.8525 31.4059 26.817 32.187C26.7644 33.3271 26.4204 33.6253 25.2761 33.6802C22.8277 33.7936 20.5058 33.4216 18.3494 32.1891C16.445 31.1018 14.9713 29.5645 13.6882 27.8263C11.1878 24.4374 9.27276 20.7169 7.5533 16.8893C7.16466 16.0267 7.44854 15.5644 8.39715 15.5478C9.97851 15.5165 11.5592 15.5203 13.1384 15.5457C13.7807 15.5564 14.2069 15.9235 14.4526 16.5303C15.3073 18.6303 16.3526 20.6288 17.6647 22.4831C18.0157 22.9765 18.3726 23.4678 18.8783 23.8161C19.4389 24.2025 19.8674 24.0763 20.1317 23.4485C20.3 23.0497 20.3736 22.6256 20.4091 22.1993C20.5348 20.74 20.5499 19.2791 20.3333 17.8241C20.1989 16.9147 19.6846 16.3266 18.7778 16.1547C18.3155 16.0665 18.3848 15.8966 18.6074 15.6316C18.9982 15.1764 19.3658 14.8925 20.0942 14.8925H25.5637C26.4264 15.0608 26.6199 15.4493 26.7371 16.3164L26.7414 22.3949C26.7311 22.7308 26.9096 23.7257 27.5121 23.9461C27.9948 24.1057 28.3162 23.7171 28.6059 23.4107C29.9158 22.0207 30.8505 20.3771 31.6857 18.6764C32.0555 17.9288 32.3748 17.1521 32.6855 16.3748C32.9144 15.7997 33.2713 15.5164 33.9201 15.5267L39.1859 15.5331C39.3412 15.5331 39.5009 15.5331 39.6541 15.5583C40.5399 15.7115 40.7834 16.0937 40.5082 16.9607C40.0782 18.3189 39.2359 19.453 38.4152 20.5887C37.5353 21.8045 36.599 22.9778 35.7256 24.2001C34.9279 25.3193 34.9907 25.882 35.984 26.8517Z" fill="white"/>
</svg>
